<svg xmlns="http://www.w3.org/2000/svg" xmlns:xlink="http://www.w3.org/1999/xlink" viewBox="0 0 746.88 166.51"><defs><linearGradient id="f37f3792-4a34-4ec1-b697-552a410c6403" x1="81.29" y1="74.1" x2="116.92" y2="64.69" gradientUnits="userSpaceOnUse"><stop offset="0.75" stop-color="#1d1d1b" stop-opacity="0"/><stop offset="1" stop-color="#1d1d1b" stop-opacity="0.3"/></linearGradient><linearGradient id="a3ab73a5-4e2d-4dc7-a4b1-dd099bafb9f4" x1="141.23" y1="72.6" x2="176.03" y2="-0.69" xlink:href="#f37f3792-4a34-4ec1-b697-552a410c6403"/></defs><title>Zeichenfläche 1</title><g style="isolation:isolate"><g id="b33b9f7d-2cc0-4ccc-9194-700c1cf942a5" data-name="Ebene 1"><path d="M70.87,131.11Q72,133,73.32,135.76c.9,1.83,1.81,3.75,2.75,5.77s1.85,4.07,2.77,6.15,1.76,4,2.53,5.78c.76-1.77,1.6-3.7,2.5-5.78s1.81-4.13,2.75-6.15,1.85-3.94,2.75-5.77,1.71-3.39,2.45-4.65h5.67q.47,3.79.87,8.07c.27,2.85.51,5.77.74,8.75s.42,6,.61,9,.34,6,.48,8.83H94q-.21-6.06-.48-12.45t-.84-12.4c-.37.76-.8,1.68-1.3,2.75s-1,2.22-1.6,3.47S88.62,149.67,88,151l-1.7,3.87c-.55,1.25-1.06,2.42-1.52,3.5l-1.2,2.78h-4.7c-.34-.77-.74-1.7-1.2-2.8s-1-2.28-1.53-3.53L74.49,151c-.58-1.34-1.16-2.62-1.72-3.85l-1.6-3.48c-.5-1.08-.94-2-1.3-2.72q-.57,6-.85,12.4t-.48,12.45h-6.2q.21-4.31.48-8.9c.19-3.07.39-6.11.62-9.13s.46-5.94.73-8.77.56-5.45.87-7.85Z" fill="#333"/><path d="M105.74,152.81a16.49,16.49,0,0,1,1-6.05,12.83,12.83,0,0,1,2.73-4.33,11.17,11.17,0,0,1,3.9-2.6,12.16,12.16,0,0,1,4.5-.87c3.6,0,6.41,1.11,8.42,3.35s3,5.56,3,10c0,.33,0,.7,0,1.12s0,.79-.07,1.13H112a6.92,6.92,0,0,0,2.22,4.87,8.47,8.47,0,0,0,5.73,1.73,19.14,19.14,0,0,0,4-.4,16.86,16.86,0,0,0,2.88-.85l.8,5a9.79,9.79,0,0,1-1.38.52,20.09,20.09,0,0,1-2,.5c-.75.15-1.55.28-2.42.38a23.15,23.15,0,0,1-2.65.15,16.1,16.1,0,0,1-6-1,11.1,11.1,0,0,1-4.2-2.85,11.66,11.66,0,0,1-2.45-4.3A17.66,17.66,0,0,1,105.74,152.81Zm17.55-2.7a8.06,8.06,0,0,0-.35-2.38,5.52,5.52,0,0,0-1-1.95,4.89,4.89,0,0,0-1.65-1.3,5.16,5.16,0,0,0-2.32-.47,5.42,5.42,0,0,0-2.45.52,5.65,5.65,0,0,0-1.78,1.38,6.25,6.25,0,0,0-1.12,2,10.27,10.27,0,0,0-.55,2.25Z" fill="#333"/><path d="M157.84,165a37,37,0,0,1-4.53,1,35,35,0,0,1-5.72.45,15.3,15.3,0,0,1-5.55-.95,11.76,11.76,0,0,1-4.18-2.73,12,12,0,0,1-2.65-4.3,16.53,16.53,0,0,1-.92-5.67,19.36,19.36,0,0,1,.77-5.63,12.37,12.37,0,0,1,2.28-4.32A10.18,10.18,0,0,1,141,140a11.85,11.85,0,0,1,4.95-1,11.32,11.32,0,0,1,3.35.45,14.6,14.6,0,0,1,2.5,1V128l6.05-1Zm-17.35-12.35a9.48,9.48,0,0,0,1.9,6.27,6.47,6.47,0,0,0,5.25,2.28,21.29,21.29,0,0,0,2.47-.13,15.63,15.63,0,0,0,1.68-.27v-15a9.2,9.2,0,0,0-2.13-1,8.18,8.18,0,0,0-2.82-.47,5.43,5.43,0,0,0-4.83,2.25A10.78,10.78,0,0,0,140.49,152.61Z" fill="#333"/><path d="M172.29,132a3.49,3.49,0,0,1-1.1,2.7,3.76,3.76,0,0,1-2.6,1,3.83,3.83,0,0,1-2.65-1,3.49,3.49,0,0,1-1.1-2.7,3.53,3.53,0,0,1,1.1-2.75,3.79,3.79,0,0,1,2.65-1,3.72,3.72,0,0,1,2.6,1A3.53,3.53,0,0,1,172.29,132Zm-.65,33.8h-6V139.61h6Z" fill="#333"/><path d="M197.64,143.86c-.67.7-1.54,1.68-2.63,2.95s-2.24,2.67-3.47,4.22-2.48,3.17-3.73,4.85-2.37,3.29-3.37,4.83h13.5v5h-20.8V162a45.13,45.13,0,0,1,2.75-4.35q1.65-2.35,3.4-4.73c1.17-1.58,2.32-3.09,3.47-4.52s2.18-2.69,3.08-3.75H177.79v-5h19.85Z" fill="#333"/><path d="M210.29,132a3.49,3.49,0,0,1-1.1,2.7,3.95,3.95,0,0,1-5.25,0,3.46,3.46,0,0,1-1.1-2.7,3.49,3.49,0,0,1,1.1-2.75,3.95,3.95,0,0,1,5.25,0A3.53,3.53,0,0,1,210.29,132Zm-.65,33.8h-6V139.61h6Z" fill="#333"/><path d="M217.34,140.46a38.64,38.64,0,0,1,4.55-1,39.14,39.14,0,0,1,6.2-.45,14.37,14.37,0,0,1,5.35.87,8.32,8.32,0,0,1,3.42,2.45,9.38,9.38,0,0,1,1.8,3.8,21.22,21.22,0,0,1,.53,4.88v14.7h-6.05V152a19.25,19.25,0,0,0-.28-3.58,6.27,6.27,0,0,0-.9-2.4,3.51,3.51,0,0,0-1.7-1.35,7.19,7.19,0,0,0-2.62-.42,20.07,20.07,0,0,0-2.4.15c-.84.1-1.45.18-1.85.25v21.1h-6Z" fill="#333"/><path d="M253.34,132a3.49,3.49,0,0,1-1.1,2.7,3.95,3.95,0,0,1-5.25,0,3.46,3.46,0,0,1-1.1-2.7,3.49,3.49,0,0,1,1.1-2.75,3.95,3.95,0,0,1,5.25,0A3.53,3.53,0,0,1,253.34,132Zm-.65,33.8h-6.05V139.61h6.05Z" fill="#333"/><path d="M266.94,161.41a8,8,0,0,0,3.5-.58,2,2,0,0,0,1.1-2,2.56,2.56,0,0,0-1.18-2.15,16.69,16.69,0,0,0-3.87-1.85,31,31,0,0,1-3-1.28,10.07,10.07,0,0,1-2.37-1.57,6.4,6.4,0,0,1-1.58-2.18,7.63,7.63,0,0,1-.57-3.12,6.81,6.81,0,0,1,2.65-5.68,11.38,11.38,0,0,1,7.2-2.07,22.42,22.42,0,0,1,4.4.42,20.49,20.49,0,0,1,3.15.83l-1.1,4.9a15,15,0,0,0-2.55-.83,15.51,15.51,0,0,0-3.6-.37,6.19,6.19,0,0,0-3,.62,2.05,2.05,0,0,0-1.15,1.93,2.81,2.81,0,0,0,.22,1.15,2.45,2.45,0,0,0,.78.92,7.72,7.72,0,0,0,1.45.85,22.77,22.77,0,0,0,2.2.88,32.59,32.59,0,0,1,3.65,1.57,9.94,9.94,0,0,1,2.47,1.75,6,6,0,0,1,1.43,2.23,8.86,8.86,0,0,1,.45,3,6.45,6.45,0,0,1-2.78,5.67c-1.85,1.28-4.49,1.93-7.92,1.93a21.81,21.81,0,0,1-5.55-.58,28.54,28.54,0,0,1-2.95-.92l1.05-5a29.85,29.85,0,0,0,3.22,1A16.82,16.82,0,0,0,266.94,161.41Z" fill="#333"/><path d="M281.79,152.71a16,16,0,0,1,.9-5.43,12.79,12.79,0,0,1,2.57-4.37,11.76,11.76,0,0,1,4.08-2.9,13.34,13.34,0,0,1,5.4-1,18.33,18.33,0,0,1,7,1.35l-1.3,4.95a13.89,13.89,0,0,0-2.38-.75,12.7,12.7,0,0,0-2.82-.3,6.62,6.62,0,0,0-5.4,2.22,9.52,9.52,0,0,0-1.85,6.28,9.85,9.85,0,0,0,1.75,6.17q1.74,2.28,5.9,2.28a15.54,15.54,0,0,0,3.05-.3,14.49,14.49,0,0,0,2.6-.75l.85,5a13,13,0,0,1-3,.9,22,22,0,0,1-4.17.4,15.22,15.22,0,0,1-5.83-1,11,11,0,0,1-4.1-2.85,11.86,11.86,0,0,1-2.42-4.35A17.82,17.82,0,0,1,281.79,152.71Z" fill="#333"/><path d="M306.83,165.76V128l6.06-1v13a14.41,14.41,0,0,1,2.32-.6,13.83,13.83,0,0,1,2.62-.25,13.57,13.57,0,0,1,5.23.87,8.28,8.28,0,0,1,3.33,2.45,9.58,9.58,0,0,1,1.77,3.78,21.09,21.09,0,0,1,.53,4.9v14.7h-6.05V152a20.15,20.15,0,0,0-.28-3.58,6.27,6.27,0,0,0-.9-2.4,3.55,3.55,0,0,0-1.68-1.35,7,7,0,0,0-2.59-.42,12.2,12.2,0,0,0-2.45.25,13.5,13.5,0,0,0-1.85.45v20.8Z" fill="#333"/><path d="M334.49,152.81a16.49,16.49,0,0,1,1-6.05,12.53,12.53,0,0,1,2.73-4.33,11.23,11.23,0,0,1,3.89-2.6,12.16,12.16,0,0,1,4.5-.87c3.61,0,6.41,1.11,8.43,3.35s3,5.56,3,10c0,.33,0,.7,0,1.12s0,.79-.07,1.13H340.74a6.84,6.84,0,0,0,2.22,4.87,8.45,8.45,0,0,0,5.72,1.73,19.31,19.31,0,0,0,4-.4,16.71,16.71,0,0,0,2.87-.85l.8,5a10.08,10.08,0,0,1-1.37.52,20.09,20.09,0,0,1-2,.5c-.75.15-1.56.28-2.43.38a23,23,0,0,1-2.65.15,16.1,16.1,0,0,1-6-1,11.06,11.06,0,0,1-4.19-2.85,11.68,11.68,0,0,1-2.46-4.3A17.66,17.66,0,0,1,334.49,152.81Zm17.54-2.7a7.74,7.74,0,0,0-.35-2.38,5.66,5.66,0,0,0-1-1.95,4.89,4.89,0,0,0-1.65-1.3,5.24,5.24,0,0,0-2.33-.47,5.35,5.35,0,0,0-2.44.52,5.43,5.43,0,0,0-1.78,1.38,6.28,6.28,0,0,0-1.13,2,10.87,10.87,0,0,0-.55,2.25Z" fill="#333"/><path d="M394.43,166.51a16.42,16.42,0,0,1-6.1-1,11.18,11.18,0,0,1-4.22-2.87,11.73,11.73,0,0,1-2.48-4.35,18.09,18.09,0,0,1-.8-5.5V131.11h6.35v21a13.55,13.55,0,0,0,.53,4,7,7,0,0,0,1.5,2.73,6,6,0,0,0,2.3,1.55,8.41,8.41,0,0,0,3,.5,8.66,8.66,0,0,0,3-.5,6,6,0,0,0,2.33-1.55,7,7,0,0,0,1.5-2.73,13.58,13.58,0,0,0,.52-4v-21h6.35v21.65a17.48,17.48,0,0,1-.82,5.5,12.2,12.2,0,0,1-2.5,4.35,11.18,11.18,0,0,1-4.28,2.87A16.78,16.78,0,0,1,394.43,166.51Z" fill="#333"/><path d="M415.93,140.46a40.76,40.76,0,0,1,10.75-1.4,14.33,14.33,0,0,1,5.35.87,8.36,8.36,0,0,1,3.43,2.45,9.38,9.38,0,0,1,1.8,3.8,21.24,21.24,0,0,1,.52,4.88v14.7h-6V152a20.25,20.25,0,0,0-.27-3.58,6.61,6.61,0,0,0-.9-2.4,3.6,3.6,0,0,0-1.7-1.35,7.29,7.29,0,0,0-2.63-.42,20.07,20.07,0,0,0-2.4.15c-.83.1-1.45.18-1.85.25v21.1h-6.05Z" fill="#333"/><path d="M451.93,132a3.49,3.49,0,0,1-1.1,2.7,3.76,3.76,0,0,1-2.6,1,3.83,3.83,0,0,1-2.65-1,3.49,3.49,0,0,1-1.1-2.7,3.53,3.53,0,0,1,1.1-2.75,3.79,3.79,0,0,1,2.65-1,3.72,3.72,0,0,1,2.6,1A3.53,3.53,0,0,1,451.93,132Zm-.65,33.8h-6V139.61h6Z" fill="#333"/><path d="M465.72,165.76q-2.5-5.16-5.15-11.83t-4.79-14.32h6.45c.37,1.46.8,3,1.28,4.72s1,3.37,1.56,5,1.12,3.32,1.7,4.9,1.13,3,1.64,4.28c.5-1.27,1-2.7,1.6-4.28s1.13-3.22,1.69-4.9,1.07-3.37,1.58-5,.93-3.26,1.3-4.72h6.25A149.12,149.12,0,0,1,476,153.93q-2.64,6.67-5.15,11.83Z" fill="#333"/><path d="M483.83,152.81a16.28,16.28,0,0,1,1-6.05,12.65,12.65,0,0,1,2.72-4.33,11.17,11.17,0,0,1,3.9-2.6A12.16,12.16,0,0,1,496,139c3.6,0,6.41,1.11,8.43,3.35s3,5.56,3,10c0,.33,0,.7,0,1.12s-.05.79-.08,1.13H490.08a6.89,6.89,0,0,0,2.23,4.87,8.43,8.43,0,0,0,5.72,1.73,19.31,19.31,0,0,0,4-.4,17,17,0,0,0,2.87-.85l.8,5a10.08,10.08,0,0,1-1.37.52c-.59.18-1.25.35-2,.5s-1.56.28-2.43.38a23.15,23.15,0,0,1-2.65.15,16.1,16.1,0,0,1-6-1,11.1,11.1,0,0,1-4.2-2.85,11.66,11.66,0,0,1-2.45-4.3A17.66,17.66,0,0,1,483.83,152.81Zm17.55-2.7a8.06,8.06,0,0,0-.35-2.38,5.66,5.66,0,0,0-1-1.95,4.89,4.89,0,0,0-1.65-1.3A5.24,5.24,0,0,0,496,144a5.42,5.42,0,0,0-2.45.52,5.5,5.5,0,0,0-1.77,1.38,6.09,6.09,0,0,0-1.13,2,10.27,10.27,0,0,0-.55,2.25Z" fill="#333"/><path d="M528.73,145.06a17.71,17.71,0,0,0-2.07-.53,15.61,15.61,0,0,0-3.08-.27,11.58,11.58,0,0,0-2.13.2,12,12,0,0,0-1.57.35v20.95h-6v-24.9a31.75,31.75,0,0,1,4.37-1.23,27.58,27.58,0,0,1,5.83-.57c.4,0,.87,0,1.4.07s1.07.12,1.6.2,1.05.18,1.55.3.9.23,1.2.33Z" fill="#333"/><path d="M540.53,161.41a8,8,0,0,0,3.5-.58,2,2,0,0,0,1.1-2,2.55,2.55,0,0,0-1.17-2.15,17,17,0,0,0-3.88-1.85,29.83,29.83,0,0,1-3-1.28,10.35,10.35,0,0,1-2.38-1.57,6.38,6.38,0,0,1-1.57-2.18,7.46,7.46,0,0,1-.58-3.12,6.81,6.81,0,0,1,2.65-5.68,11.41,11.41,0,0,1,7.2-2.07,22.42,22.42,0,0,1,4.4.42,20.49,20.49,0,0,1,3.15.83l-1.1,4.9a15,15,0,0,0-2.55-.83,15.39,15.39,0,0,0-3.6-.37,6.25,6.25,0,0,0-3,.62,2.05,2.05,0,0,0-1.15,1.93,2.81,2.81,0,0,0,.23,1.15,2.42,2.42,0,0,0,.77.92,8.05,8.05,0,0,0,1.45.85,22.77,22.77,0,0,0,2.2.88,32.59,32.59,0,0,1,3.65,1.57,10,10,0,0,1,2.48,1.75,5.94,5.94,0,0,1,1.42,2.23,8.86,8.86,0,0,1,.45,3,6.45,6.45,0,0,1-2.77,5.67c-1.85,1.28-4.5,1.93-7.93,1.93a21.81,21.81,0,0,1-5.55-.58,29.39,29.39,0,0,1-2.95-.92l1-5a30.09,30.09,0,0,0,3.23,1A16.74,16.74,0,0,0,540.53,161.41Z" fill="#333"/><path d="M563.58,132a3.49,3.49,0,0,1-1.1,2.7,3.76,3.76,0,0,1-2.6,1,3.83,3.83,0,0,1-2.65-1,3.49,3.49,0,0,1-1.1-2.7,3.53,3.53,0,0,1,1.1-2.75,3.79,3.79,0,0,1,2.65-1,3.72,3.72,0,0,1,2.6,1A3.53,3.53,0,0,1,563.58,132Zm-.65,33.8h-6V139.61h6Z" fill="#333"/><path d="M570.33,132.71l6-1v7.9h9.3v5h-9.3v10.65a7.71,7.71,0,0,0,1,4.5,4,4,0,0,0,3.4,1.35,11.18,11.18,0,0,0,2.92-.35c.85-.24,1.53-.45,2-.65l1,4.8a23.61,23.61,0,0,1-2.75.92,14.81,14.81,0,0,1-4,.48,12.68,12.68,0,0,1-4.68-.75,6.87,6.87,0,0,1-3-2.18,8.67,8.67,0,0,1-1.55-3.45,21.41,21.41,0,0,1-.45-4.62Z" fill="#333"/><path d="M600.23,139a14.81,14.81,0,0,1,5,.75,8,8,0,0,1,3.27,2.1,7.83,7.83,0,0,1,1.75,3.27,16,16,0,0,1,.53,4.23v15.85q-1.4.3-4.23.72a43.52,43.52,0,0,1-6.37.43,19.11,19.11,0,0,1-4.3-.45,9.2,9.2,0,0,1-3.33-1.45,7,7,0,0,1-2.15-2.6,9.15,9.15,0,0,1-.77-3.95,7.65,7.65,0,0,1,.87-3.8,7.21,7.21,0,0,1,2.38-2.53,10.24,10.24,0,0,1,3.47-1.4,19.81,19.81,0,0,1,4.13-.42,19.3,19.3,0,0,1,2.1.12,19,19,0,0,1,2.35.43v-1a7.67,7.67,0,0,0-.25-2,4.11,4.11,0,0,0-.88-1.68,4,4,0,0,0-1.65-1.12,7,7,0,0,0-2.57-.4,22.88,22.88,0,0,0-3.85.3,16.45,16.45,0,0,0-2.85.7l-.75-4.9a22.48,22.48,0,0,1,3.35-.8A25.89,25.89,0,0,1,600.23,139Zm-4.45-3.65a3.39,3.39,0,0,1-2.35-.9,3.12,3.12,0,0,1-1-2.45,3.2,3.2,0,0,1,1-2.48,3.32,3.32,0,0,1,2.35-.92,3.4,3.4,0,0,1,2.37.92,3.16,3.16,0,0,1,1,2.48,3.08,3.08,0,0,1-1,2.45A3.47,3.47,0,0,1,595.78,135.31Zm5,26.2a22.59,22.59,0,0,0,4.25-.3v-6.7a11.77,11.77,0,0,0-1.45-.3,13.46,13.46,0,0,0-2.1-.15,14.07,14.07,0,0,0-2,.15,6.24,6.24,0,0,0-1.85.55,3.28,3.28,0,0,0-1.32,1.12,3.16,3.16,0,0,0-.5,1.83,3.19,3.19,0,0,0,1.35,3A7,7,0,0,0,600.73,161.51Zm5.4-26.2a3.52,3.52,0,0,1-2.38-.9,3.11,3.11,0,0,1-1-2.45,3.18,3.18,0,0,1,1-2.48,3.44,3.44,0,0,1,2.38-.92,3.33,3.33,0,0,1,2.35.92,3.2,3.2,0,0,1,1,2.48,3.12,3.12,0,0,1-1,2.45A3.41,3.41,0,0,1,606.13,135.31Z" fill="#333"/><path d="M617.93,132.71l6.05-1v7.9h9.3v5H624v10.65a7.71,7.71,0,0,0,1,4.5,4,4,0,0,0,3.4,1.35,11.18,11.18,0,0,0,2.92-.35c.85-.24,1.53-.45,2-.65l1,4.8a23.61,23.61,0,0,1-2.75.92,14.81,14.81,0,0,1-4,.48,12.68,12.68,0,0,1-4.68-.75,6.87,6.87,0,0,1-3-2.18,8.67,8.67,0,0,1-1.55-3.45,21.41,21.41,0,0,1-.45-4.62Z" fill="#333"/><path d="M663.78,135.86c-3.57,0-6.29,1.1-8.18,3.32s-2.82,5.29-2.82,9.23a18.34,18.34,0,0,0,.67,5.12,11.38,11.38,0,0,0,2,4,9.28,9.28,0,0,0,3.3,2.57,10.78,10.78,0,0,0,4.63.93c1.1,0,2,0,2.85-.13a11.72,11.72,0,0,0,1.9-.32V148.11h6.3v16.65a30,30,0,0,1-4.4,1.1,38,38,0,0,1-7.15.6,18.8,18.8,0,0,1-6.85-1.2,14.24,14.24,0,0,1-5.28-3.5,16,16,0,0,1-3.37-5.65,22.8,22.8,0,0,1-1.2-7.7,20.88,20.88,0,0,1,1.32-7.7,16.64,16.64,0,0,1,3.63-5.68,15.18,15.18,0,0,1,5.4-3.52,18.07,18.07,0,0,1,6.6-1.2,24.85,24.85,0,0,1,4.27.32,28.89,28.89,0,0,1,3.23.73,12.34,12.34,0,0,1,2.22.85c.59.3,1,.51,1.23.65l-1.9,5.15a15.36,15.36,0,0,0-3.73-1.53A17,17,0,0,0,663.78,135.86Z" fill="#333"/><path d="M696.33,145.06a17.44,17.44,0,0,0-2.08-.53,15.51,15.51,0,0,0-3.07-.27,11.58,11.58,0,0,0-2.13.2,12,12,0,0,0-1.57.35v20.95h-6.05v-24.9a31.35,31.35,0,0,1,4.37-1.23,27.51,27.51,0,0,1,5.83-.57c.4,0,.86,0,1.4.07s1.06.12,1.6.2,1,.18,1.55.3.9.23,1.2.33Z" fill="#333"/><path d="M710.28,139a14.81,14.81,0,0,1,5.05.75,8,8,0,0,1,3.27,2.1,7.83,7.83,0,0,1,1.75,3.27,16,16,0,0,1,.53,4.23v15.85q-1.39.3-4.23.72a43.52,43.52,0,0,1-6.37.43,19.11,19.11,0,0,1-4.3-.45,9.2,9.2,0,0,1-3.33-1.45,7,7,0,0,1-2.15-2.6,9.15,9.15,0,0,1-.77-3.95,7.65,7.65,0,0,1,.87-3.8,7.21,7.21,0,0,1,2.38-2.53,10.24,10.24,0,0,1,3.47-1.4,19.81,19.81,0,0,1,4.13-.42,19.44,19.44,0,0,1,2.1.12,19,19,0,0,1,2.35.43v-1a7.67,7.67,0,0,0-.25-2,4.11,4.11,0,0,0-.88-1.68,4,4,0,0,0-1.65-1.12,7,7,0,0,0-2.57-.4,22.8,22.8,0,0,0-3.85.3,16.45,16.45,0,0,0-2.85.7l-.75-4.9a22.17,22.17,0,0,1,3.35-.8A25.89,25.89,0,0,1,710.28,139Zm.5,22.55a22.59,22.59,0,0,0,4.25-.3v-6.7a11.77,11.77,0,0,0-1.45-.3,13.55,13.55,0,0,0-2.1-.15,14.07,14.07,0,0,0-2,.15,6.24,6.24,0,0,0-1.85.55,3.28,3.28,0,0,0-1.32,1.12,3.16,3.16,0,0,0-.5,1.83,3.19,3.19,0,0,0,1.35,3A7,7,0,0,0,710.78,161.51Z" fill="#333"/><path d="M746.58,143.86c-.67.7-1.55,1.68-2.63,2.95s-2.24,2.67-3.47,4.22-2.48,3.17-3.73,4.85-2.37,3.29-3.37,4.83h13.5v5h-20.8V162a45.13,45.13,0,0,1,2.75-4.35q1.65-2.35,3.4-4.73t3.47-4.52q1.72-2.16,3.08-3.75h-12v-5h19.85Z" fill="#333"/><path d="M121.46,9.73l-25,84.63a3,3,0,0,1-2.89,2.21H69.25a3,3,0,0,1-2.92-2.31L51.1,36.84h-.27l-27,126.66a3,3,0,0,1-2.93,2.4H3a3,3,0,0,1-2.92-3.69L35.19,12a3,3,0,0,1,2.92-2.3H64.27a3,3,0,0,1,2.94,2.42l13.23,59h.28l16-57.31a5.3,5.3,0,0,1,5.15-4Z" fill="#007934"/><g style="mix-blend-mode:multiply"><path d="M121.46,9.73l-25,84.63a3,3,0,0,1-2.89,2.21H69.25a3,3,0,0,1-2.92-2.31L51.1,36.84h-.27l-27,126.66a3,3,0,0,1-2.93,2.4H3a3,3,0,0,1-2.92-3.69L35.19,12a3,3,0,0,1,2.92-2.3H64.27a3,3,0,0,1,2.94,2.42l13.23,59h.28l16-57.31a5.3,5.3,0,0,1,5.15-4Z" fill="url(#f37f3792-4a34-4ec1-b697-552a410c6403)"/></g><path d="M192,0H178.88a14,14,0,0,0-13.64,17.25L177.35,67c3.62,14.14-2.24,17.73-10.78,17.73-8.8,0-17.68-3.64-21.14-17.18-4.61-18-9-35.28-13.43-53.77a5.27,5.27,0,0,0-5.15-4.06H101.94a5.43,5.43,0,0,1,5.29,4.15c4.31,17.82,8.37,34.43,13.58,55.6,6.65,27.08,27.06,37.71,50.64,37.71,22.64,0,36.56-12.89,30.59-37.3L189.22,17.27C186.71,7,196.26,0,198.94,2.51A9.74,9.74,0,0,0,192,0" fill="#34b233"/><path d="M192,0H178.88a14,14,0,0,0-13.64,17.25L177.35,67c3.62,14.14-2.24,17.73-10.78,17.73-8.8,0-17.68-3.64-21.14-17.18-4.61-18-9-35.28-13.43-53.77a5.27,5.27,0,0,0-5.15-4.06H101.94a5.43,5.43,0,0,1,5.29,4.15c4.31,17.82,8.37,34.43,13.58,55.6,6.65,27.08,27.06,37.71,50.64,37.71,22.64,0,36.56-12.89,30.59-37.3L189.22,17.27C186.71,7,196.26,0,198.94,2.51A9.74,9.74,0,0,0,192,0" fill="url(#a3ab73a5-4e2d-4dc7-a4b1-dd099bafb9f4)" style="mix-blend-mode:multiply"/><path d="M192,0H178.87a14,14,0,0,1,14,14l2.64-8.17,6.66,2.73S200.92,0,192,0Z" fill="#ff7f45"/></g></g></svg>